<mxfile host="app.diagrams.net" modified="2024-01-03T14:40:40.487Z" agent="Mozilla/5.0 (Macintosh; Intel Mac OS X 10_15_7) AppleWebKit/537.36 (KHTML, like Gecko) Chrome/114.0.0.0 Safari/537.36" etag="gGNJI733_WsmyhynBg3U" version="22.1.16" type="google">
  <diagram name="Page-1" id="sP_LPgL8xMHjq43CIlo9">
    <mxGraphModel grid="1" page="1" gridSize="10" guides="1" tooltips="1" connect="1" arrows="1" fold="1" pageScale="1" pageWidth="850" pageHeight="1100" math="0" shadow="0">
      <root>
        <mxCell id="0" />
        <mxCell id="1" parent="0" />
        <mxCell id="8B_b46xg8DT7jWkFDhd6-1" value="" style="edgeStyle=orthogonalEdgeStyle;rounded=0;orthogonalLoop=1;jettySize=auto;html=1;" edge="1" parent="1" source="9R5IWZWOWXFS1lAQp3il-1" target="9R5IWZWOWXFS1lAQp3il-3">
          <mxGeometry relative="1" as="geometry" />
        </mxCell>
        <mxCell id="9R5IWZWOWXFS1lAQp3il-1" value="check if website responds&lt;br&gt;" style="rounded=0;whiteSpace=wrap;html=1;" vertex="1" parent="1">
          <mxGeometry x="15" y="190" width="120" height="60" as="geometry" />
        </mxCell>
        <mxCell id="8B_b46xg8DT7jWkFDhd6-18" value="" style="edgeStyle=orthogonalEdgeStyle;rounded=0;orthogonalLoop=1;jettySize=auto;html=1;" edge="1" parent="1" source="9R5IWZWOWXFS1lAQp3il-3" target="8B_b46xg8DT7jWkFDhd6-16">
          <mxGeometry relative="1" as="geometry" />
        </mxCell>
        <mxCell id="9R5IWZWOWXFS1lAQp3il-3" value="http request of html" style="rounded=0;whiteSpace=wrap;html=1;" vertex="1" parent="1">
          <mxGeometry x="210" y="190" width="120" height="60" as="geometry" />
        </mxCell>
        <mxCell id="8B_b46xg8DT7jWkFDhd6-3" value="" style="edgeStyle=orthogonalEdgeStyle;rounded=0;orthogonalLoop=1;jettySize=auto;html=1;" edge="1" parent="1" source="9R5IWZWOWXFS1lAQp3il-4" target="9R5IWZWOWXFS1lAQp3il-5">
          <mxGeometry relative="1" as="geometry" />
        </mxCell>
        <mxCell id="9R5IWZWOWXFS1lAQp3il-4" value="extract html elements containing communities" style="rounded=0;whiteSpace=wrap;html=1;" vertex="1" parent="1">
          <mxGeometry x="590" y="190" width="120" height="60" as="geometry" />
        </mxCell>
        <mxCell id="8B_b46xg8DT7jWkFDhd6-5" value="" style="edgeStyle=orthogonalEdgeStyle;rounded=0;orthogonalLoop=1;jettySize=auto;html=1;" edge="1" parent="1" source="9R5IWZWOWXFS1lAQp3il-5" target="8B_b46xg8DT7jWkFDhd6-4">
          <mxGeometry relative="1" as="geometry" />
        </mxCell>
        <mxCell id="9R5IWZWOWXFS1lAQp3il-5" value="extract listings from each community html element" style="rounded=0;whiteSpace=wrap;html=1;" vertex="1" parent="1">
          <mxGeometry x="790" y="190" width="120" height="60" as="geometry" />
        </mxCell>
        <mxCell id="8B_b46xg8DT7jWkFDhd6-4" value="store listings in aws S3" style="rounded=0;whiteSpace=wrap;html=1;" vertex="1" parent="1">
          <mxGeometry x="990" y="190" width="120" height="60" as="geometry" />
        </mxCell>
        <mxCell id="8B_b46xg8DT7jWkFDhd6-6" value="I assume we don&#39;t care about duplicates" style="text;html=1;align=center;verticalAlign=middle;resizable=0;points=[];autosize=1;strokeColor=none;fillColor=none;" vertex="1" parent="1">
          <mxGeometry x="940" y="270" width="240" height="30" as="geometry" />
        </mxCell>
        <mxCell id="8B_b46xg8DT7jWkFDhd6-7" value="&lt;ul style=&quot;box-sizing: border-box; margin-top: 0px; margin-bottom: 1rem; padding-left: 1rem; margin-inline-start: 0.2rem; color: rgb(69, 69, 69); font-family: sans-serif, sans-serif; text-align: left; background-color: rgb(255, 255, 255);&quot; id=&quot;yui_3_17_2_1_1704287046822_111&quot;&gt;&lt;li style=&quot;box-sizing: border-box; line-height: 28px;&quot; id=&quot;yui_3_17_2_1_1704287046822_110&quot;&gt;&lt;font style=&quot;font-size: 12px;&quot;&gt;What do you do when the pipeline breaks? (whether there exist possibility to rerun your pipeline and how much time it would take)&lt;/font&gt;&lt;/li&gt;&lt;/ul&gt;" style="text;html=1;align=center;verticalAlign=middle;resizable=0;points=[];autosize=1;strokeColor=none;fillColor=none;" vertex="1" parent="1">
          <mxGeometry x="20" y="450" width="730" height="60" as="geometry" />
        </mxCell>
        <mxCell id="8B_b46xg8DT7jWkFDhd6-8" value="If pipeline breaks on the stage of getting http request, then wait and try again.&lt;br&gt;if pipeline breaks on any stage of extraction, then there is no point in trying to rerun pipeline as error will just persevere. The developer must fix the bug first" style="text;html=1;align=center;verticalAlign=middle;resizable=0;points=[];autosize=1;strokeColor=none;fillColor=none;" vertex="1" parent="1">
          <mxGeometry x="20" y="490" width="850" height="40" as="geometry" />
        </mxCell>
        <mxCell id="8B_b46xg8DT7jWkFDhd6-9" value="yes" style="text;html=1;align=center;verticalAlign=middle;resizable=0;points=[];autosize=1;strokeColor=none;fillColor=none;" vertex="1" parent="1">
          <mxGeometry x="160" y="178" width="40" height="30" as="geometry" />
        </mxCell>
        <mxCell id="8B_b46xg8DT7jWkFDhd6-10" value="no" style="text;html=1;strokeColor=none;fillColor=none;align=center;verticalAlign=middle;whiteSpace=wrap;rounded=0;" vertex="1" parent="1">
          <mxGeometry x="70" y="280" width="60" height="30" as="geometry" />
        </mxCell>
        <mxCell id="8B_b46xg8DT7jWkFDhd6-14" value="" style="curved=1;endArrow=classic;html=1;rounded=0;exitX=0.438;exitY=1.042;exitDx=0;exitDy=0;exitPerimeter=0;entryX=0;entryY=0.5;entryDx=0;entryDy=0;" edge="1" parent="1" source="9R5IWZWOWXFS1lAQp3il-1" target="9R5IWZWOWXFS1lAQp3il-1">
          <mxGeometry width="50" height="50" relative="1" as="geometry">
            <mxPoint x="40" y="370" as="sourcePoint" />
            <mxPoint x="-60" y="230" as="targetPoint" />
            <Array as="points">
              <mxPoint x="90" y="370" />
              <mxPoint x="-150" y="290" />
            </Array>
          </mxGeometry>
        </mxCell>
        <mxCell id="8B_b46xg8DT7jWkFDhd6-15" value="try again in 20 minutes.&lt;br&gt;max retries = 5&lt;br&gt;" style="text;html=1;align=center;verticalAlign=middle;resizable=0;points=[];autosize=1;strokeColor=none;fillColor=none;" vertex="1" parent="1">
          <mxGeometry x="-180" y="330" width="150" height="40" as="geometry" />
        </mxCell>
        <mxCell id="8B_b46xg8DT7jWkFDhd6-19" value="" style="edgeStyle=orthogonalEdgeStyle;rounded=0;orthogonalLoop=1;jettySize=auto;html=1;" edge="1" parent="1" source="8B_b46xg8DT7jWkFDhd6-16" target="9R5IWZWOWXFS1lAQp3il-4">
          <mxGeometry relative="1" as="geometry" />
        </mxCell>
        <mxCell id="8B_b46xg8DT7jWkFDhd6-16" value="store raw html in aws s3" style="rounded=0;whiteSpace=wrap;html=1;" vertex="1" parent="1">
          <mxGeometry x="400" y="190" width="120" height="60" as="geometry" />
        </mxCell>
        <mxCell id="8B_b46xg8DT7jWkFDhd6-17" value="store only the latest request, so there will be only one html page in S3" style="text;html=1;strokeColor=none;fillColor=none;align=center;verticalAlign=middle;whiteSpace=wrap;rounded=0;" vertex="1" parent="1">
          <mxGeometry x="372.5" y="280" width="175" height="70" as="geometry" />
        </mxCell>
        <mxCell id="8B_b46xg8DT7jWkFDhd6-20" value="&lt;ul style=&quot;box-sizing: border-box; margin-top: 0px; margin-bottom: 1rem; padding-left: 1rem; margin-inline-start: 0.2rem; color: rgb(69, 69, 69); font-family: sans-serif, sans-serif; text-align: left; background-color: rgb(255, 255, 255);&quot; id=&quot;yui_3_17_2_1_1704287046822_111&quot;&gt;&lt;li style=&quot;box-sizing: border-box; line-height: 28px;&quot; id=&quot;yui_3_17_2_1_1704287046822_112&quot;&gt;&lt;font style=&quot;font-size: 12px;&quot;&gt;How do you control data quality? (propose your metrics)&lt;/font&gt;&lt;/li&gt;&lt;/ul&gt;" style="text;html=1;align=center;verticalAlign=middle;resizable=0;points=[];autosize=1;strokeColor=none;fillColor=none;" vertex="1" parent="1">
          <mxGeometry x="20" y="570" width="340" height="60" as="geometry" />
        </mxCell>
        <mxCell id="8B_b46xg8DT7jWkFDhd6-21" value="&lt;font style=&quot;font-size: 12px;&quot;&gt;1. Completeness - measures the percentage of missing values&lt;br style=&quot;border-color: var(--border-color);&quot;&gt;2. Accuracy - calculates the percentage of inaccuracies or errors in the dataset compared to a trusted source (someone must do it manually - compare the dataset with the website)&lt;br style=&quot;border-color: var(--border-color);&quot;&gt;3. Usability -&amp;nbsp;Measures how easily the data can be accessed and used by intended stakeholders.&lt;/font&gt;" style="text;html=1;align=center;verticalAlign=middle;resizable=0;points=[];autosize=1;strokeColor=none;fillColor=none;" vertex="1" parent="1">
          <mxGeometry x="-170" y="603" width="980" height="60" as="geometry" />
        </mxCell>
        <mxCell id="8B_b46xg8DT7jWkFDhd6-75" value="&lt;ul style=&quot;box-sizing: border-box; margin-top: 0px; margin-bottom: 1rem; padding-left: 1rem; margin-inline-start: 0.2rem; color: rgb(69, 69, 69); font-family: sans-serif, sans-serif; text-align: left; background-color: rgb(255, 255, 255);&quot; id=&quot;yui_3_17_2_1_1704287046822_111&quot;&gt;&lt;li style=&quot;box-sizing: border-box; line-height: 28px;&quot;&gt;&lt;font style=&quot;font-size: 12px;&quot;&gt;How do you scale your pipeline? (suppose that you will need to scale your pipeline from 1 state to 10 states)&lt;/font&gt;&lt;/li&gt;&lt;/ul&gt;" style="text;html=1;align=center;verticalAlign=middle;resizable=0;points=[];autosize=1;strokeColor=none;fillColor=none;" vertex="1" parent="1">
          <mxGeometry x="10" y="720" width="620" height="60" as="geometry" />
        </mxCell>
        <mxCell id="8B_b46xg8DT7jWkFDhd6-76" value="i will allocate more workers in airflow" style="text;html=1;align=center;verticalAlign=middle;resizable=0;points=[];autosize=1;strokeColor=none;fillColor=none;" vertex="1" parent="1">
          <mxGeometry x="20" y="770" width="220" height="30" as="geometry" />
        </mxCell>
        <mxCell id="8B_b46xg8DT7jWkFDhd6-77" value="&lt;ul style=&quot;box-sizing: border-box; margin-top: 0px; margin-bottom: 1rem; padding-left: 1rem; margin-inline-start: 0.2rem; color: rgb(69, 69, 69); font-family: sans-serif, sans-serif; text-align: left; background-color: rgb(255, 255, 255);&quot; id=&quot;yui_3_17_2_1_1704287046822_111&quot;&gt;&lt;li style=&quot;box-sizing: border-box; line-height: 28px;&quot; id=&quot;yui_3_17_2_1_1704287046822_113&quot;&gt;&lt;font style=&quot;font-size: 12px;&quot;&gt;What to do when you will be blocked?&lt;/font&gt;&lt;/li&gt;&lt;/ul&gt;" style="text;html=1;align=center;verticalAlign=middle;resizable=0;points=[];autosize=1;strokeColor=none;fillColor=none;" vertex="1" parent="1">
          <mxGeometry x="20" y="840" width="240" height="60" as="geometry" />
        </mxCell>
        <mxCell id="8B_b46xg8DT7jWkFDhd6-78" value="Use proxy server to hide my true IP. change IP when blocked" style="text;html=1;align=center;verticalAlign=middle;resizable=0;points=[];autosize=1;strokeColor=none;fillColor=none;" vertex="1" parent="1">
          <mxGeometry x="20" y="880" width="350" height="30" as="geometry" />
        </mxCell>
        <mxCell id="8B_b46xg8DT7jWkFDhd6-80" value="&lt;ul style=&quot;box-sizing: border-box; margin-top: 0px; margin-bottom: 1rem; padding-left: 1rem; margin-inline-start: 0.2rem; color: rgb(69, 69, 69); font-family: sans-serif, sans-serif; text-align: left; background-color: rgb(255, 255, 255);&quot; id=&quot;yui_3_17_2_1_1704287046822_111&quot;&gt;&lt;li style=&quot;box-sizing: border-box; line-height: 28px;&quot; id=&quot;yui_3_17_2_1_1704287046822_115&quot;&gt;&lt;font style=&quot;font-size: 12px;&quot;&gt;Do you not violate the law?&lt;/font&gt;&lt;/li&gt;&lt;/ul&gt;" style="text;html=1;align=center;verticalAlign=middle;resizable=0;points=[];autosize=1;strokeColor=none;fillColor=none;" vertex="1" parent="1">
          <mxGeometry x="15" y="960" width="190" height="60" as="geometry" />
        </mxCell>
        <mxCell id="8B_b46xg8DT7jWkFDhd6-81" value="I do not violate law, as I do not scrape any personal information" style="text;html=1;align=center;verticalAlign=middle;resizable=0;points=[];autosize=1;strokeColor=none;fillColor=none;" vertex="1" parent="1">
          <mxGeometry x="20" y="1000" width="360" height="30" as="geometry" />
        </mxCell>
      </root>
    </mxGraphModel>
  </diagram>
</mxfile>
